******** ******** **      ** *******
/**///// //////** /**     /**/**////**
/**           **  /**     /**/**    /**
/*******     **   /**********/**    /**
/**////     **    /**//////**/**    /**
/**        **     /**     /**/**    **
/**       ********/**     /**/*******
//       //////// //      // ///////

Titlu: The.Great.Escape.1963.720p.HDTV.x264-FZHD
Data Lansarii: 22-11-2011
Sursa: The.Great.Escape.1963.720p.HDTV.x264-DON
Traducerea si adaptarea: lukas24, Ramon79us

Cinemagia: http://www.cinemagia.ro/filme/the-great-escape-marea-evadare-3314/

Rating: 8.6/10 din 181 de voturi 

Gen: Actiune, Aventuri, Drama, Istoric, Razboi, Thriller
Durata: 169 de minute
Subtitrare: Romana

Sinopsis:

Marea evadare este unul dintre cele mai captivante filme de razboi facute la Hollywood. Este greu de spus ce a contribuit mai mult la longevitatea filmului in preferinta publicului: exceptionala poveste a ofiterilor aliati care au pus la punct timp de un an una din cele mai incredibile evadari dintr-un lagar de prizonieri din Germania sau distributia, care a adunat staruri a caror faima a ramas neclintita pana astazi.

Povestea din care s-a inspirat filmul este reala si incredibila totodata. In 1944, un grup de ofiteri aliati prizonieri au organizat evadarea din Stalag Luft III, unul din cele mai bine pazite lagare de prizonieri din Germania. Pregatirile au durat un an si au implicat participarea a peste 600 de oameni, care au lucrat zi si noapte la desenarea hartilor, falsificarea actelor, coaserea hainelor civile si nu in ultimul rand la fabricarea uneltelor si saparea celor trei tunele catre libertate. Tunelele au fost sapate la o anumita adancime, ca sa fie la adapost de detectoarele de sunet si au avut in jur de 400 metri in lungime. Nenumarate detalii au fost puse la punct cu minutiozitate: scoaterea pamantului din tunel, sistemul de iluminare si ventilatie... Pe cat de nebunesc a parut acest plan, cu tot atata tenacitate a fost dus la indeplinire.

Un detaliu insa a zadarnicit succesul total al operatiunii. Unul dintre tunele se termina cu vreo 24 de metri inainte de liziera padurii, unde oamenii ar fi iesit fara griji, la adapost. Asa evacuarea s-a facut mai greu, fiind nevoiti sa iasa unul cate unul, cand santinela se intorcea cu spatele la padure. Un raid aerian a parut sa le fie favorabil, mai ales ca nemtii au oprit curentul, dar unul dintre prizonieri s-a panicat si a blocat iesirea din tunel. Apoi cand au inceput sa iasa, un altul a scapat o servieta si a atras atentia nemtilor.

In final au reusit sa scape 76 din cei 200 de prizonieri care au incercat sa evadeze. 50 au fost executati. Ceilalti au fost prinsi si inchisi din nou in lagar.

Detalii Tehnice:

General
Unique ID                        : 233436285230207437892277159953844487527 (0xAF9E3174733A46818AF58381996D4567)
Complete name                    : The.Great.Escape.1963.720p.HDTV.x264-FZHD.mkv
Format                           : Matroska
File size                        : 7.95 GiB
Duration                         : 2h 45mn
Overall bit rate                 : 6 901 Kbps
Encoded date                     : UTC 2011-11-22 10:22:20
Writing application              : mkvmerge v5.0.1 (\'Es ist Sommer\') built on Oct  9 2011 11:55:43
Writing library                  : libebml v1.2.2 + libmatroska v1.3.0

Video
ID                               : 1
Format                           : AVC
Format/Info                      : Advanced Video Codec
Format profile                   : High@L4.1
Format settings, CABAC           : Yes
Format settings, ReFrames        : 6 frames
Muxing mode                      : Header stripping
Codec ID                         : V_MPEG4/ISO/AVC
Duration                         : 2h 45mn
Bit rate                         : 6 515 Kbps
Width                            : 1 280 pixels
Height                           : 546 pixels
Display aspect ratio             : 2.35:1
Frame rate                       : 25.000 fps
Color space                      : YUV
Chroma subsampling               : 4:2:0
Bit depth                        : 8 bits
Scan type                        : Progressive
Bits/(Pixel*Frame)               : 0.373
Stream size                      : 7.35 GiB (92%)
Title                            : The Great Escape (1963)
Writing library                  : x264 core 84 r1400M 20fa784
Encoding settings                : cabac=1 / ref=6 / deblock=1:-3:-3 / analyse=0x3:0x113 / me=umh / subme=10 / psy=1 / psy_rd=0.9:0.0 / mixed_ref=1 / me_range=32 / chroma_me=1 / trellis=2 / 8x8dct=1 / cqm=0 / deadzone=21,11 / fast_pskip=0 / chroma_qp_offset=-2 / threads=8 / sliced_threads=0 / nr=0 / decimate=1 / mbaff=0 / constrained_intra=0 / bframes=6 / b_pyramid=0 / b_adapt=2 / b_bias=0 / direct=3 / wpredb=1 / wpredp=2 / keyint=250 / keyint_min=25 / scenecut=40 / intra_refresh=0 / rc=2pass / mbtree=0 / bitrate=6515 / ratetol=1.0 / qcomp=0.60 / qpmin=10 / qpmax=51 / qpstep=4 / cplxblur=20.0 / qblur=0.5 / ip_ratio=1.40 / pb_ratio=1.30 / aq=1:0.60 / pulldown=0 / nal_hrd=0
Language                         : English

Audio
ID                               : 2
Format                           : AC-3
Format/Info                      : Audio Coding 3
Mode extension                   : CM (complete main)
Muxing mode                      : Header stripping
Codec ID                         : A_AC3
Duration                         : 2h 45mn
Bit rate mode                    : Constant
Bit rate                         : 384 Kbps
Channel(s)                       : 6 channels
Channel positions                : Front: L C R, Side: L R, LFE
Sampling rate                    : 48.0 KHz
Bit depth                        : 16 bits
Compression mode                 : Lossy
Stream size                      : 453 MiB (6%)
Title                            : AC3 5.1 384kbps
Language                         : English

Text
ID                               : 3
Format                           : UTF-8
Codec ID                         : S_TEXT/UTF8
Codec ID/Info                    : UTF-8 Plain Text
Title                            : Romana
Language                         : Romanian







Muxed by JohnnyB @ SceneFZ HD Team

Notes: Sit Back, Relax!

*WARNING! Don`t click
